<?xml version="1.0" encoding="utf-8"?>
<!-- Generator: Adobe Illustrator 18.1.1, SVG Export Plug-In . SVG Version: 6.00 Build 0)  -->
<svg version="1.1"
	 id="Layer_1" xmlns:rdf="http://www.w3.org/1999/02/22-rdf-syntax-ns#" xmlns:sodipodi="http://sodipodi.sourceforge.net/DTD/sodipodi-0.dtd" xmlns:dc="http://purl.org/dc/elements/1.1/" xmlns:cc="http://creativecommons.org/ns#" xmlns:svg="http://www.w3.org/2000/svg" xmlns:inkscape="http://www.inkscape.org/namespaces/inkscape"
	 xmlns="http://www.w3.org/2000/svg" xmlns:xlink="http://www.w3.org/1999/xlink" x="0px" y="0px" viewBox="0 0 1000 1000"
	 enable-background="new 0 0 1000 1000" xml:space="preserve">
<g id="Layer_2">
	<rect x="168" y="120" fill="#FFFFFF" width="678" height="778"/>
</g>
<path id="rect2986" fill="#3B5998" d="M100,0C44.6,0,0,44.6,0,100v800c0,55.4,44.6,100,100,100h800c55.4,0,100-44.6,100-100V100
	c0-55.4-44.6-100-100-100H100z M575.8,180h97.8v112.2H615c-46.8,0-53.4,15.2-53.4,45.4v66.6h112l-13.4,112.2h-98.8v336.2H416V516.4
	h-78.8V404.2H416v-74.8C416.2,235,455.8,180,575.8,180z"/>
</svg>
