<?xml version="1.0" encoding="utf-8"?>
<!-- Generator: Adobe Illustrator 18.1.1, SVG Export Plug-In . SVG Version: 6.00 Build 0)  -->
<svg version="1.1"
	 id="svg2" xmlns:rdf="http://www.w3.org/1999/02/22-rdf-syntax-ns#" xmlns:sodipodi="http://sodipodi.sourceforge.net/DTD/sodipodi-0.dtd" xmlns:dc="http://purl.org/dc/elements/1.1/" xmlns:cc="http://creativecommons.org/ns#" xmlns:svg="http://www.w3.org/2000/svg" xmlns:inkscape="http://www.inkscape.org/namespaces/inkscape"
	 xmlns="http://www.w3.org/2000/svg" xmlns:xlink="http://www.w3.org/1999/xlink" x="0px" y="0px" viewBox="0 0 1000 1000"
	 enable-background="new 0 0 1000 1000" xml:space="preserve">
<g id="Layer_2">
	<rect x="63.8" y="36.8" fill="#FFFFFF" width="879.1" height="897.1"/>
</g>
<g id="layer1" transform="translate(0,-552.36218)">
	<path id="rect2995" fill="#DD4B39" d="M100,552.4c-55.4,0-100,44.6-100,100v800c0,55.4,44.6,100,100,100h800
		c55.4,0,100-44.6,100-100v-800c0-55.4-44.6-100-100-100H100z M401.6,658h209.8l-64.8,38.2h-64.8c22.6,14.4,41,33.4,53.4,59.2
		c12.4,25.8,17.2,54,17.2,82c0,23.6-2.4,44.4-9.6,63c-7.4,18.2-16.2,32.8-26.6,43.8c-10.4,11.2-22,21-32.4,30.4
		c-10.4,9.2-19.4,18.4-26.6,28.6c-7.4,9.8-11.4,21-11.4,32.4c0,8.2,2.4,16.8,7.6,24.8c5.4,8,12.6,15.6,21,22.8
		c8.6,7.4,18.4,15,28.6,22.8c10.2,8,20.4,16.8,30.4,26.6c10.2,9.6,18.4,19,26.8,30.4c8.6,11.2,15.8,24.2,21,40.2
		c5.4,15.6,7.6,33.4,7.6,51.4c0,50.8-22.4,94.6-66.8,133.6c-48.4,41.6-115,63-200.2,63c-18.8,0-37.8-0.6-57.2-3.8
		c-19-3.2-37.4-9.6-57.2-17.2c-19.4-7.4-36.6-15.6-51.6-26.6c-15-10.8-28.6-26.4-38.2-43.8c-9.6-17.2-13.4-35.8-13.4-57.2
		c0-19.4,5.4-41.2,17.2-64.8c10.2-20.4,25.4-37,45.8-51.6c20.4-15,42.8-26.6,68.6-34.2c25.8-8,50.8-13.8,74.4-17.2
		c23.6-3.8,48.4-5,72.4-5.6c-20.4-26.4-30.4-51.6-30.4-72.4c0-3.8-0.6-6,0-9.6c0.6-3.8,2.8-7,3.8-9.6s2.2-7.4,3.8-11.6
		c1.6-4.4,1.2-7,1.8-9.6c-12.8,1.6-22.8,1.8-32.4,1.8c-47.4,0-88-14.6-122-45.8c-33.8-30.8-51.8-70.8-51.6-117.8
		c0-44.4,15.6-83.2,45.8-118.2c30.2-35.2,66.4-58.8,110.6-68.6C341.8,661.2,372,658,401.6,658z M336.6,692.4
		c-29.6,0-52.4,10.6-68.6,32.4c-16.2,22-24.8,49.6-24.8,80c0,15,2.2,29.2,5.8,45.8c3.8,16.6,9.6,33,17.2,49.6
		c7.6,16.6,16.6,32.4,26.6,45.8c10.2,13,23.6,24.2,38.2,32.4c14.6,8.2,29.6,11.4,45.8,11.4c30.8,0,53-9.6,66.6-28.6
		c14-19.4,21-44.6,21-76.4c0-19-2.2-39.8-7.6-61c-5-21.6-13-42.8-23-62.8c-9.6-20-22.8-36.6-40-49.6
		C377,698.4,357.6,692.4,336.6,692.4z M714.2,841.2h61v122h122v61h-122v122h-61v-122h-122v-61h122V841.2z M400.6,1157.4
		c-4.2,0-9,0.4-14.4,0.4c-17.2,0-33-0.4-49.6,1.8c-16.6,2.2-33.8,7.6-51.6,13.4c-17.8,5.6-34.4,12-47.6,21
		c-13.4,9-23.8,21.2-32.4,36.2s-13.4,32.4-13.4,51.6c0,21.6,6,40.2,17.2,57.2c11.4,17.2,25.8,30.6,43.8,40
		c18.4,9.8,37.2,16.2,57.2,21s40.8,7.6,61,7.6c18.8,0,36.6-1.6,53.4-5.6c17.2-3.8,34.6-10.6,49.6-19.2c15-8.2,25.8-19.4,34.4-34.4
		c9-14.8,13.4-33.4,13.4-53.4c0-6.8-0.2-13-2-19c-1.2-6.4-2.2-12.2-3.8-17.2c-1.6-5.4-5.4-9.6-9.6-15.2c-3.8-5.8-6.6-11.4-9.6-15.2
		c-2.6-4.2-7.6-8-13.4-13.4s-10.2-10.8-13.4-13.4c-2.8-2.8-8-6-15.2-11.4c-7-5.4-12.4-9.6-15.2-11.6c-2.6-1.8-7.4-6-15.2-11.4
		c-7.6-5.4-11.4-8.2-13.4-9.6C408.4,1157.4,404.8,1157.4,400.6,1157.4z"/>
</g>
</svg>
