<?xml version="1.0" encoding="utf-8"?>
<!-- Generator: Adobe Illustrator 18.1.1, SVG Export Plug-In . SVG Version: 6.00 Build 0)  -->
<svg version="1.1" xmlns="http://www.w3.org/2000/svg" xmlns:xlink="http://www.w3.org/1999/xlink" x="0px" y="0px"
	 viewBox="0 0 1000 1000" enable-background="new 0 0 1000 1000" xml:space="preserve">
<g id="Layer_2">
	<rect x="66" y="48" fill="#FFFFFF" width="866" height="814"/>
</g>
<g id="Layer_1">
	<g>
		<path fill="#55ACEE" d="M50.2,0h900.2c27.1,0,49.6,22.5,49.6,50.2v900.2c0,27.1-22.5,49.6-49.6,49.6H50.2
			C22.5,1000,0,977.5,0,950.4V50.2C0,22.5,22.5,0,50.2,0L50.2,0z M545.7,234c-19.5,15.4-35.4,34.8-45.5,57.2l-5.9,14.3
			c-2.9,8.2-5.3,17.8-6.4,27.1c-0.6,4.1-1.2,8.2-1.2,12.5v8.2l0.6,13.1l2.3,17.2h-0.6l-6.4,0.6h-4.1c-50.2-0.6-98-11.7-141.8-31.2
			l-25.4-12.3c-4.7-2.3-9.4-5.3-13.7-7.6c-28.3-17.2-53.7-37.9-76.8-61.5c-14.3-15.4-26.6-31.2-38.5-48.4
			c-12.5,23.6-19.5,50.2-19.5,78.5c0,10.5,1.2,21.3,2.9,31.2c0.6,4.1,1.8,8.2,2.9,12.5c8.2,30.7,24.8,57.8,47.3,78.5l11.1,9.4
			l-14.3-2.9c-18.4-4.7-36.5-10.5-53.7-17.8c2.3,36.7,16.6,70.3,39.1,96.9c20.7,25.4,49,44.3,81.4,53.7l-37.5,2.1l-31.2-1.8
			c23.6,57.2,77.3,98.6,141.8,103.9c-59,43.2-132.2,68-210.9,68.6c57.8,34.8,124.6,56.6,196.1,60.7h47.3
			c222.1-12.3,398-195.9,398-421.1l-0.6-21.9c8.2-6.4,17.2-13.7,24.8-21.3c18.9-18.4,35.9-38.5,50.8-59.6
			c-23,14.8-50.8,23.6-80.9,23.6h-1.8h-1.2l1.2-0.6c27.7-17.8,49.6-44.9,60.2-76.8c-21.9,10.5-45.5,20.1-69.7,26.6l-3.5,0.6
			l-17.8,4.1c-27.1-28.3-64.5-46.1-105.7-46.7h-1.2h-1.8c-11.9,0-23,1.2-34.2,3.5c-16.6,4.1-31.8,10.5-45.5,19.5L545.7,234z"/>
	</g>
</g>
</svg>
